<?xml version="1.0" standalone="no"?>
<!DOCTYPE svg PUBLIC "-//W3C//DTD SVG 20010904//EN"
 "http://www.w3.org/TR/2001/REC-SVG-20010904/DTD/svg10.dtd">
<svg version="1.0" xmlns="http://www.w3.org/2000/svg"
 width="700.000000pt" height="700.000000pt" viewBox="0 0 700.000000 700.000000"
 preserveAspectRatio="xMidYMid meet">
<metadata>
Created by potrace 1.14, written by Peter Selinger 2001-2017
</metadata>
<g transform="translate(0.000000,700.000000) scale(0.100000,-0.100000)"
fill="#000000" stroke="none">
<path d="M2685 6990 c-17 -4 -38 -11 -47 -16 -9 -5 -77 -83 -153 -174 -75 -91
-147 -176 -158 -190 -12 -14 -53 -62 -90 -107 -80 -96 -111 -121 -175 -137
-65 -17 -105 -11 -190 30 -113 56 -204 48 -288 -23 -12 -10 -95 -117 -185
-238 -90 -121 -167 -222 -170 -225 -3 -3 -27 -36 -53 -75 -80 -119 -108 -260
-79 -390 20 -88 37 -122 191 -363 60 -94 153 -284 182 -372 14 -41 28 -76 31
-78 3 -1 -5 -33 -17 -70 -13 -37 -25 -90 -29 -117 -6 -55 -7 -1530 -1 -1610 2
-27 7 -102 10 -165 4 -63 9 -122 11 -130 2 -8 7 -43 10 -77 3 -34 8 -72 11
-85 2 -13 6 -39 9 -58 24 -212 107 -486 216 -719 34 -71 158 -275 178 -291 3
-3 18 -21 32 -40 67 -89 237 -247 392 -363 l88 -66 -1 -420 0 -421 1087 0
1088 0 -1 413 c0 226 1 417 3 423 2 6 25 26 51 45 131 93 259 204 362 315 79
85 93 103 161 206 150 228 276 568 325 878 3 19 7 42 9 50 3 8 7 40 10 71 3
31 8 67 10 80 3 13 8 56 11 94 3 39 7 86 9 105 18 161 27 1664 11 1773 -4 27
-14 70 -23 95 -21 64 -20 83 13 160 59 141 124 236 275 402 97 108 101 114
102 170 0 64 -33 108 -115 152 -78 42 -101 80 -95 157 4 50 8 58 54 100 35 32
55 60 64 89 20 67 3 104 -91 197 -146 145 -181 217 -176 358 2 71 9 97 48 192
59 144 79 233 79 352 0 78 -9 111 -29 117 -16 5 -110 3 -302 -9 -156 -9 -309
-17 -570 -29 -69 -4 -154 -8 -190 -11 -36 -2 -119 -7 -185 -10 -66 -3 -156 -8
-200 -10 -44 -3 -127 -7 -185 -10 -146 -7 -257 -13 -380 -20 -187 -11 -293
-13 -322 -4 -16 4 -52 10 -81 14 -28 3 -59 8 -67 10 -8 2 -31 7 -50 10 -19 3
-46 7 -60 10 -14 3 -41 7 -60 10 -19 3 -60 10 -90 15 -30 5 -71 11 -90 14 -49
8 -93 17 -99 20 -3 2 -20 0 -36 -4z"/>
</g>
</svg>
